<svg xmlns="http://www.w3.org/2000/svg" viewBox="0 0 1024 1024">
  <path fill="#4CAF50" d="M512 100c30 0 280 400 280 612 0 212-180 212-280 212s-280 0-280-212c0-212 250-612 280-612z"/>
  <path fill="#FFC107" d="M512 200c25 0 230 350 230 512 0 162-130 162-230 162s-230 0-230-162c0-162 205-512 230-512z"/>
  <path fill="#FF9800" d="M512 300c20 0 180 300 180 412 0 112-80 112-180 112s-180 0-180-112c0-112 160-412 180-412z"/>
  <path fill="#FF5722" d="M512 400c15 0 130 250 130 312 0 62-30 62-130 62s-130 0-130-62c0-62 115-312 130-312z"/>
  <path fill="#9C27B0" d="M512 500c10 0 80 200 80 212 0 12-20 12-80 12s-80 0-80-12c0-12 70-212 80-212z"/>
  <path fill="#4CAF50" d="M562 50l-50-30-50 30c0 0-30 100 0 150s100 0 100 0c30-50 0-150 0-150z"/>
</svg>