<?xml version="1.0" standalone="no"?>
<!DOCTYPE svg PUBLIC "-//W3C//DTD SVG 20010904//EN"
 "http://www.w3.org/TR/2001/REC-SVG-20010904/DTD/svg10.dtd">
<svg version="1.0" xmlns="http://www.w3.org/2000/svg"
 width="640.000000pt" height="600.000000pt" viewBox="0 0 640.000000 600.000000"
 preserveAspectRatio="xMidYMid meet">

<g transform="translate(0.000000,600.000000) scale(0.100000,-0.100000)"
fill="#000000" stroke="none">
<path d="M2415 1748 c-344 -87 -679 -161 -945 -208 -96 -17 -185 -33 -197 -35
-22 -5 -20 -10 42 -111 270 -437 607 -795 870 -926 106 -53 149 -61 281 -55
197 10 310 43 431 125 110 75 163 94 253 94 74 -1 118 -17 221 -79 177 -106
247 -128 455 -139 107 -6 129 -4 190 14 140 43 303 159 487 345 70 71 127 136
127 143 0 9 -12 14 -32 14 -18 0 -87 11 -153 25 -143 30 -656 157 -651 162 1
2 149 48 327 104 178 55 461 146 629 202 320 106 333 114 195 116 -249 4
-1082 111 -1952 251 -139 22 -256 39 -260 39 -5 -1 -147 -37 -318 -81z"/>
</g>
</svg>
